<?xml version="1.0" encoding="UTF-8"?>
<svg version="1.1" xmlns="http://www.w3.org/2000/svg" width="200" height="200">
<path d="M0 0 C66 0 132 0 200 0 C200 66 200 132 200 200 C134 200 68 200 0 200 C0 134 0 68 0 0 Z " fill="#F6F8FA" transform="translate(0,0)"/>
<path d="M0 0 C2.86688248 0.09096556 5.70300515 0.23767988 8.5625 0.4375 C9.36880859 0.48970703 10.17511719 0.54191406 11.00585938 0.59570312 C13.00421738 0.72577376 15.00215386 0.86229056 17 1 C17 2.32 17 3.64 17 5 C14.69 5 12.38 5 10 5 C10 5.99 10 6.98 10 8 C11.98 8 13.96 8 16 8 C16 9.32 16 10.64 16 12 C14.02 12 12.04 12 10 12 C10 13.32 10 14.64 10 16 C12.31 16 14.62 16 17 16 C17 16.99 17 17.98 17 19 C15.35425434 19.02688151 13.70838587 19.04634123 12.0625 19.0625 C11.14597656 19.07410156 10.22945312 19.08570313 9.28515625 19.09765625 C7 19 7 19 6 18 C5.76346477 15.47403741 5.57826308 12.96892793 5.4375 10.4375 C5.39431641 9.72658203 5.35113281 9.01566406 5.30664062 8.28320312 C5.20028223 6.52238088 5.09961154 4.7612168 5 3 C1.88214887 3.64644661 1.88214887 3.64644661 1 6 C2.32 6 3.64 6 5 6 C5 6.99 5 7.98 5 9 C4.01 9 3.02 9 2 9 C2 12.3 2 15.6 2 19 C0.68 19 -0.64 19 -2 19 C-2 15.7 -2 12.4 -2 9 C-2.66 9 -3.32 9 -4 9 C-4 8.01 -4 7.02 -4 6 C-3.34 6 -2.68 6 -2 6 C-1.855625 5.195625 -1.71125 4.39125 -1.5625 3.5625 C-1 1 -1 1 0 0 Z " fill="#1FB1EB" transform="translate(83,122)"/>
<path d="M0 0 C0.66 0 1.32 0 2 0 C2.20753906 0.64066406 2.41507813 1.28132813 2.62890625 1.94140625 C5.13789173 8.98546172 8.2736967 14.42536007 15.0078125 18.09375 C16.63987111 18.80736267 18.31715049 19.41615425 20 20 C20 20.33 20 20.66 20 21 C11.447201 20.79982811 4.19875743 18.92084325 -2.18359375 12.9609375 C-7 7.63091046 -7 7.63091046 -7 5 C-4.525 5.495 -4.525 5.495 -2 6 C-1.34 4.02 -0.68 2.04 0 0 Z " fill="#1CB0EA" transform="translate(79,92)"/>
<path d="M0 0 C0.309375 0.9590625 0.309375 0.9590625 0.625 1.9375 C1.88634445 4.35423882 1.88634445 4.35423882 5.0859375 4.62890625 C6.04757813 4.75136719 7.00921875 4.87382813 8 5 C7.59007813 5.62003906 7.18015625 6.24007812 6.7578125 6.87890625 C1.87924436 14.8970314 0.72112633 21.78698948 0 31 C-4.17069513 25.92263202 -4.20286421 21.54725164 -4.25 15.125 C-4.270625 14.43019531 -4.29125 13.73539063 -4.3125 13.01953125 C-4.34847024 8.24448191 -3.46613194 5.07285427 -1 1 C-0.67 0.67 -0.34 0.34 0 0 Z " fill="#18AFEA" transform="translate(66,61)"/>
<path d="M0 0 C3.52007489 5.28011233 4.34190407 9.58252921 4.3125 15.875 C4.32861328 16.55691406 4.34472656 17.23882812 4.36132812 17.94140625 C4.36613374 22.98730243 3.2362765 26.48024327 1 31 C0.34 31 -0.32 31 -1 31 C-1.33 30.01 -1.66 29.02 -2 28 C-3.98 27.67 -5.96 27.34 -8 27 C-7.59007813 26.3915625 -7.18015625 25.783125 -6.7578125 25.15625 C-1.698866 16.92638488 -0.68589921 9.4252012 0 0 Z " fill="#18AFEA" transform="translate(134,55)"/>
<path d="M0 0 C0.99 0 1.98 0 3 0 C3 0.99 3 1.98 3 3 C3.99 3 4.98 3 6 3 C6 3.99 6 4.98 6 6 C5.01 6 4.02 6 3 6 C3 8.31 3 10.62 3 13 C3.99 13 4.98 13 6 13 C6 13.99 6 14.98 6 16 C3.625 16.1875 3.625 16.1875 1 16 C-1.4294516 12.3558226 -1.16179575 10.28758728 -1 6 C-2.98 6.33 -4.96 6.66 -7 7 C-7 9.97 -7 12.94 -7 16 C-8.32 16 -9.64 16 -11 16 C-11.33 12.04 -11.66 8.08 -12 4 C-10.68 4 -9.36 4 -8 4 C-5.66365343 3.68848712 -3.32961443 3.35840222 -1 3 C-0.67 2.01 -0.34 1.02 0 0 Z " fill="#19AFEB" transform="translate(126,125)"/>
<path d="M0 0 C0.66 0.33 1.32 0.66 2 1 C2 1.99 2 2.98 2 4 C0.02 4 -1.96 4 -4 4 C-4 4.66 -4 5.32 -4 6 C-3.030625 6.474375 -2.06125 6.94875 -1.0625 7.4375 C2 9 2 9 3 10 C3.25 12.9375 3.25 12.9375 3 16 C-0.08888522 18.05925681 -0.70935927 18.2390374 -4.1875 18.125 C-5.445625 18.08375 -6.70375 18.0425 -8 18 C-8.33 16.68 -8.66 15.36 -9 14 C-6.69 14 -4.38 14 -2 14 C-2 13.34 -2 12.68 -2 12 C-2.969375 11.525625 -3.93875 11.05125 -4.9375 10.5625 C-8 9 -8 9 -9 8 C-9.29178308 5.22806071 -9.36366316 3.58590175 -7.875 1.1875 C-5.18909098 -0.51357571 -3.11342901 -0.26497268 0 0 Z " fill="#1BB0EB" transform="translate(63,123)"/>
<path d="M0 0 C0.99 0 1.98 0 3 0 C3 2.31 3 4.62 3 7 C4.98 6.67 6.96 6.34 9 6 C11.20914 9.31371 11.22481553 10.3446021 11.125 14.1875 C11.10695312 15.08855469 11.08890625 15.98960937 11.0703125 16.91796875 C11.03550781 17.94857422 11.03550781 17.94857422 11 19 C9.68 19 8.36 19 7 19 C7 16.03 7 13.06 7 10 C6.01 10 5.02 10 4 10 C4 12.97 4 15.94 4 19 C2.68 19 1.36 19 0 19 C0 12.73 0 6.46 0 0 Z " fill="#21B2EB" transform="translate(134,122)"/>
<path d="M0 0 C3.375 -0.125 3.375 -0.125 7 0 C9.49505962 2.49505962 9.35948376 3.67328888 9.625 7.125 C9.69976562 8.03507813 9.77453125 8.94515625 9.8515625 9.8828125 C9.90054688 10.58148438 9.94953125 11.28015625 10 12 C6.60169639 12.77675511 3.48880949 13.19382275 0 13 C-1 12 -1 12 -1.1875 9.5625 C-1 7 -1 7 1 5 C2.32 5 3.64 5 5 5 C5 4.34 5 3.68 5 3 C3.02 3 1.04 3 -1 3 C-0.67 2.01 -0.34 1.02 0 0 Z " fill="#29B5EC" transform="translate(103,128)"/>
<path d="M0 0 C5.48076923 -0.36538462 5.48076923 -0.36538462 7.6875 1.1875 C9.45312631 3.62574585 9.30348915 5.21044507 9.1875 8.1875 C9.16042969 9.08855469 9.13335937 9.98960937 9.10546875 10.91796875 C9.07066406 11.60503906 9.03585938 12.29210937 9 13 C7.54207116 13.05399736 6.08357288 13.09279177 4.625 13.125 C3.81289062 13.14820313 3.00078125 13.17140625 2.1640625 13.1953125 C0 13 0 13 -2 11 C-1.625 8.375 -1.625 8.375 -1 6 C-0.01 6 0.98 6 2 6 C2 7.32 2 8.64 2 10 C2.99 10 3.98 10 5 10 C5 9.01 5 8.02 5 7 C4.34 6.67 3.68 6.34 3 6 C3.66 5.01 4.32 4.02 5 3 C3.02 3 1.04 3 -1 3 C-0.67 2.01 -0.34 1.02 0 0 Z " fill="#16AEEA" transform="translate(69,128)"/>
<path d="M0 0 C0.33 0 0.66 0 1 0 C1 5.94 1 11.88 1 18 C0.34 17.67 -0.32 17.34 -1 17 C-1 16.34 -1 15.68 -1 15 C-1.99 15 -2.98 15 -4 15 C-4 12.69 -4 10.38 -4 8 C-3.01 8 -2.02 8 -1 8 C-0.67 5.36 -0.34 2.72 0 0 Z " fill="#D5EDF8" transform="translate(133,123)"/>
<path d="M0 0 C0.66 0.33 1.32 0.66 2 1 C1.67 2.32 1.34 3.64 1 5 C1.99 5.33 2.98 5.66 4 6 C4 6.66 4 7.32 4 8 C2.33388095 8.042721 0.66617115 8.04063832 -1 8 C-2 7 -2 7 -2.1875 4.5625 C-2 2 -2 2 0 0 Z " fill="#18AFEB" transform="translate(104,133)"/>
<path d="M0 0 C0.33 0.99 0.66 1.98 1 3 C0.34 3 -0.32 3 -1 3 C-1 3.66 -1 4.32 -1 5 C-2.65 5.33 -4.3 5.66 -6 6 C-6 3 -6 3 -5 2 C-3.33382885 1.95936168 -1.66611905 1.957279 0 2 C0 1.34 0 0.68 0 0 Z " fill="#3BBAED" transform="translate(125,126)"/>
<path d="M0 0 C1.98 0.495 1.98 0.495 4 1 C4 1.99 4 2.98 4 4 C2.35 4 0.7 4 -1 4 C-0.67 2.68 -0.34 1.36 0 0 Z " fill="#35B8EC" transform="translate(125,86)"/>
</svg>
